<?xml version="1.0" encoding="UTF-8"?>
<svg width="800px" height="600px" viewBox="0 0 800 600" version="1.1" xmlns="http://www.w3.org/2000/svg">
    <defs>
        <linearGradient x1="0%" y1="0%" x2="100%" y2="100%" id="boardGradient">
            <stop stop-color="#534bae" offset="0%"/>
            <stop stop-color="#1a237e" offset="100%"/>
        </linearGradient>
        <filter id="shadow" x="-20%" y="-20%" width="140%" height="140%">
            <feGaussianBlur in="SourceAlpha" stdDeviation="10"/>
            <feOffset dx="0" dy="10" result="offsetblur"/>
            <feComponentTransfer>
                <feFuncA type="linear" slope="0.3"/>
            </feComponentTransfer>
            <feMerge>
                <feMergeNode/>
                <feMergeNode in="SourceGraphic"/>
            </feMerge>
        </filter>
    </defs>
    
    <!-- Deck -->
    <g transform="translate(100, 250)" filter="url(#shadow)">
        <path d="M50,20 
                 C100,0 500,0 550,20
                 C600,40 600,60 550,80
                 C500,100 100,100 50,80
                 C0,60 0,40 50,20 Z" 
              fill="url(#boardGradient)"/>
        
        <!-- Grip tape pattern -->
        <g opacity="0.1">
            <path d="M100,30 L500,30" stroke="#fff" stroke-width="2"/>
            <path d="M100,40 L500,40" stroke="#fff" stroke-width="2"/>
            <path d="M100,50 L500,50" stroke="#fff" stroke-width="2"/>
            <path d="M100,60 L500,60" stroke="#fff" stroke-width="2"/>
            <path d="M100,70 L500,70" stroke="#fff" stroke-width="2"/>
        </g>
        
        <!-- Trucks -->
        <g>
            <rect x="150" y="-10" width="80" height="20" rx="5" fill="#424242"/>
            <rect x="370" y="-10" width="80" height="20" rx="5" fill="#424242"/>
            <rect x="150" y="90" width="80" height="20" rx="5" fill="#424242"/>
            <rect x="370" y="90" width="80" height="20" rx="5" fill="#424242"/>
        </g>
        
        <!-- Wheels -->
        <g>
            <circle cx="170" cy="-20" r="25" fill="#ff6f00"/>
            <circle cx="210" cy="-20" r="25" fill="#ff6f00"/>
            <circle cx="390" cy="-20" r="25" fill="#ff6f00"/>
            <circle cx="430" cy="-20" r="25" fill="#ff6f00"/>
            
            <circle cx="170" cy="120" r="25" fill="#ff6f00"/>
            <circle cx="210" cy="120" r="25" fill="#ff6f00"/>
            <circle cx="390" cy="120" r="25" fill="#ff6f00"/>
            <circle cx="430" cy="120" r="25" fill="#ff6f00"/>
        </g>
    </g>
    
    <!-- Decorative elements -->
    <g transform="translate(400, 300)" opacity="0.1">
        <circle cx="0" cy="0" r="150" stroke="#fff" stroke-width="2" fill="none"/>
        <circle cx="0" cy="0" r="100" stroke="#fff" stroke-width="2" fill="none"/>
        <circle cx="0" cy="0" r="50" stroke="#fff" stroke-width="2" fill="none"/>
    </g>
</svg> 